# Blender 4.4.3
# www.blender.org
mtllib Untitled.mtl
o Cube
v 1.000000 1.000000 -1.000000
v 1.000000 -1.000000 -1.000000
v 1.000000 1.000000 1.000000
v 1.000000 -1.000000 1.000000
v -1.000000 1.000000 -1.000000
v -1.000000 -1.000000 -1.000000
v -1.000000 1.000000 1.000000
v -1.000000 -1.000000 1.000000
v -1.000000 -1.000000 -0.750000
v -1.000000 -1.000000 -0.500000
v -1.000000 -1.000000 -0.250000
v -1.000000 -1.000000 0.000000
v -1.000000 -1.000000 0.250000
v -1.000000 -1.000000 0.500000
v -1.000000 -1.000000 0.750000
v 1.000000 1.000000 -0.750000
v 1.000000 1.000000 -0.500000
v 1.000000 1.000000 -0.250000
v 1.000000 1.000000 0.000000
v 1.000000 1.000000 0.250000
v 1.000000 1.000000 0.500000
v 1.000000 1.000000 0.750000
v -1.000000 1.000000 0.750000
v -1.000000 1.000000 0.500000
v -1.000000 1.000000 0.250000
v -1.000000 1.000000 0.000000
v -1.000000 1.000000 -0.250000
v -1.000000 1.000000 -0.500000
v -1.000000 1.000000 -0.750000
v 1.000000 -1.000000 0.750000
v 1.000000 -1.000000 0.500000
v 1.000000 -1.000000 0.250000
v 1.000000 -1.000000 0.000000
v 1.000000 -1.000000 -0.250000
v 1.000000 -1.000000 -0.500000
v 1.000000 -1.000000 -0.750000
vn -0.0000 1.0000 -0.0000
vn -0.0000 -0.0000 1.0000
vn -1.0000 -0.0000 -0.0000
vn -0.0000 -1.0000 -0.0000
vn 1.0000 -0.0000 -0.0000
vn -0.0000 -0.0000 -1.0000
vt 0.625000 0.718750
vt 0.875000 0.718750
vt 0.875000 0.750000
vt 0.625000 0.750000
vt 0.375000 0.750000
vt 0.625000 1.000000
vt 0.375000 1.000000
vt 0.375000 0.218750
vt 0.625000 0.218750
vt 0.625000 0.250000
vt 0.375000 0.250000
vt 0.125000 0.718750
vt 0.375000 0.718750
vt 0.125000 0.750000
vt 0.625000 0.500000
vt 0.375000 0.500000
vt 0.625000 0.531250
vt 0.375000 0.531250
vt 0.625000 0.562500
vt 0.375000 0.562500
vt 0.625000 0.593750
vt 0.375000 0.593750
vt 0.625000 0.625000
vt 0.375000 0.625000
vt 0.625000 0.656250
vt 0.375000 0.656250
vt 0.625000 0.687500
vt 0.375000 0.687500
vt 0.125000 0.500000
vt 0.125000 0.531250
vt 0.125000 0.562500
vt 0.125000 0.593750
vt 0.125000 0.625000
vt 0.125000 0.656250
vt 0.125000 0.687500
vt 0.375000 0.000000
vt 0.625000 0.000000
vt 0.625000 0.031250
vt 0.375000 0.031250
vt 0.625000 0.062500
vt 0.375000 0.062500
vt 0.625000 0.093750
vt 0.375000 0.093750
vt 0.625000 0.125000
vt 0.375000 0.125000
vt 0.625000 0.156250
vt 0.375000 0.156250
vt 0.625000 0.187500
vt 0.375000 0.187500
vt 0.875000 0.500000
vt 0.875000 0.531250
vt 0.875000 0.562500
vt 0.875000 0.593750
vt 0.875000 0.625000
vt 0.875000 0.656250
vt 0.875000 0.687500
s 0
usemtl Material
f 22/1/1 23/2/1 7/3/1 3/4/1
f 4/5/2 3/4/2 7/6/2 8/7/2
f 9/8/3 29/9/3 5/10/3 6/11/3
f 15/12/4 30/13/4 4/5/4 8/14/4
f 30/13/5 22/1/5 3/4/5 4/5/5
f 6/11/6 5/10/6 1/15/6 2/16/6
f 2/16/5 1/15/5 16/17/5 36/18/5
f 36/18/5 16/17/5 17/19/5 35/20/5
f 35/20/5 17/19/5 18/21/5 34/22/5
f 34/22/5 18/21/5 19/23/5 33/24/5
f 33/24/5 19/23/5 20/25/5 32/26/5
f 32/26/5 20/25/5 21/27/5 31/28/5
f 31/28/5 21/27/5 22/1/5 30/13/5
f 6/29/4 2/16/4 36/18/4 9/30/4
f 9/30/4 36/18/4 35/20/4 10/31/4
f 10/31/4 35/20/4 34/22/4 11/32/4
f 11/32/4 34/22/4 33/24/4 12/33/4
f 12/33/4 33/24/4 32/26/4 13/34/4
f 13/34/4 32/26/4 31/28/4 14/35/4
f 14/35/4 31/28/4 30/13/4 15/12/4
f 8/36/3 7/37/3 23/38/3 15/39/3
f 15/39/3 23/38/3 24/40/3 14/41/3
f 14/41/3 24/40/3 25/42/3 13/43/3
f 13/43/3 25/42/3 26/44/3 12/45/3
f 12/45/3 26/44/3 27/46/3 11/47/3
f 11/47/3 27/46/3 28/48/3 10/49/3
f 10/49/3 28/48/3 29/9/3 9/8/3
f 1/15/1 5/50/1 29/51/1 16/17/1
f 16/17/1 29/51/1 28/52/1 17/19/1
f 17/19/1 28/52/1 27/53/1 18/21/1
f 18/21/1 27/53/1 26/54/1 19/23/1
f 19/23/1 26/54/1 25/55/1 20/25/1
f 20/25/1 25/55/1 24/56/1 21/27/1
f 21/27/1 24/56/1 23/2/1 22/1/1
